<?xml version="1.0" encoding="UTF-8"?>
<svg xmlns="http://www.w3.org/2000/svg" viewBox="0 0 1229 553" width="64" height="28.79739625712"><g fill="none" fill-rule="nonzero" transform="translate(.472 .988)"><path fill="#232628" d="M993.367 423.552c0-32.65 9.15-62.41 24.18-84.89v-41.9h69.61c51.75 0 93.7 56.76 93.7 126.79s-41.95 126.78-93.7 126.78h-69.68v-41.91c-15-22.46-24.17-52.23-24.17-84.87"/><path fill="#8A9097" d="M1084.987 427.792c0 51.69-31 93.6-69.16 93.6s-69.15-41.91-69.15-93.6 31-93.56 69.15-93.56c38.15 0 69.16 41.88 69.16 93.56"/><path fill="#C1C7CC" d="M1015.807 334.232a50.67 50.67 0 0 1 9.91 1c-33.51 6.59-59.33 45.49-59.33 92.6 0 47.11 25.75 86.12 59.33 92.63a53.17 53.17 0 0 1-9.91 1c-38.19 0-69.15-41.91-69.15-93.6s31-93.56 69.15-93.56"/><path fill="#C1C7CC" d="M937.537 439.202l58.14-26.66a17.81 17.81 0 0 0 9.67-10.1l29.93-85.38 43.64 11-30.43 86.8a17.11 17.11 0 0 0 1.89 15.14l28.61 44.58-20.54 46.81-42.63-64.76a11.12 11.12 0 0 0-13.83-3.43l-59.88 27.47-4.57-41.47z"/><path fill="#383B3E" d="M1019.437 296.762c-51.75 0-93.71 56.76-93.71 126.79s42 126.78 93.71 126.78c51.71 0 93.7-56.76 93.7-126.78 0-70.02-42-126.79-93.7-126.79m-3.63 224.63c-38.19 0-69.15-41.91-69.15-93.6s31-93.56 69.15-93.56c38.15 0 69.18 41.88 69.18 93.56s-31 93.6-69.15 93.6"/><path fill="#232628" d="M423.777 423.552c0-32.65 9.12-62.41 24.18-84.89v-41.9h69.59c51.75 0 93.72 56.76 93.72 126.79s-42 126.78-93.72 126.78h-69.66v-41.91c-15-22.46-24.17-52.23-24.17-84.87"/><path fill="#8A9097" d="M515.377 427.792c0 51.69-31 93.6-69.16 93.6s-69.18-41.91-69.18-93.6 31-93.56 69.18-93.56c38.18 0 69.16 41.88 69.16 93.56"/><path fill="#C1C7CC" d="M446.217 334.232a51.45 51.45 0 0 1 9.91 1c-33.51 6.59-59.33 45.49-59.33 92.6 0 47.11 25.75 86.12 59.33 92.63a54 54 0 0 1-9.91 1c-38.19 0-69.18-41.91-69.18-93.6s31-93.56 69.18-93.56"/><path fill="#C1C7CC" d="M367.917 439.202l58.15-26.66a17.9 17.9 0 0 0 9.67-10.1l29.93-85.38 43.64 11-30.43 86.8a17.13 17.13 0 0 0 1.88 15.14l28.68 44.37-20.57 47-42.63-64.77a11.11 11.11 0 0 0-13.73-3.42l-59.88 27.46-4.71-41.44z"/><path fill="#383B3E" d="M449.847 296.762c-51.75 0-93.7 56.76-93.7 126.79s41.95 126.78 93.7 126.78 93.7-56.76 93.7-126.78c0-70.02-41.95-126.79-93.7-126.79m-3.63 224.63c-38.19 0-69.18-41.91-69.18-93.6s31-93.56 69.18-93.56c38.18 0 69.16 41.88 69.16 93.56s-31 93.6-69.16 93.6"/><path fill="#D0D4D8" d="M37.837 305.482l132.46 55.07 4.95 138.84h647.74c132.09 0 350.3-.86 350.3-.86 27.21-.55 22.79-19.6 29.71-38.56 40.94-42.46 17.23-148.4 17.23-148.4l-19.78-28c-16.39-42-39.84-52-75.41-88.37C978.317 45.412 821.727.652 614.497.652h-47.66c-102.31 3.45-303.56-2.36-480.24 164.52l-48.76 140.31zm782.31 149.67c-1.08-16.48-1.67-25.62 0 0m2.84 43.73c-.11-1.75-.48-7.34-.94-14.43.28 4.39.61 9.23.94 14.43m-1.16-18c-.13-2-.27-4.05-.42-6.14.13 2 .26 4 .42 6.14m-.53-7.94c-.15-2.19-.29-4.5-.44-6.74.13 2.19.29 4.39.44 6.74m-.68-9.58c0-1.14-.15-2.2-.22-3.36 0 1.05.13 2.2.22 3.36"/><path fill="#D0D4D8" d="M175.137 489.742L.747 427.072c-4.76-53.33 13.62-96.91 43.59-128.49l130.8 2.53v188.63z"/><path fill="#383B3E" d="M1095.987 165.832c-84.82-82.32-178-119.39-256.73-143.06a380.73 380.73 0 0 0-63.13-13.18c-108.53-13.32-218.08-9.76-271.83-6.94 71.88 20.81 133.32 73.24 179.69 137.21 51.51 70.95 121.72 126.14 203.68 157.21 21.32 8.08 142.16 52.93 216.87 5.93 84.72-52.74 28.13-101.64-8.46-137.15"/><path fill="#2E3033" d="M952.387 397.002a836.21 836.21 0 0 0 180.74 0l9.21-6.11s-.48-6.87-3-6.87c-66.43 5.91-131.19 6.44-193.68 0-1.59 0-2.9 2.74-3 6.22l9.73 6.76zm25.23 50.19a662.56 662.56 0 0 0 130.13 0l6.6-6.06s-.36-6.9-2.2-6.9a724.92 724.92 0 0 1-139.43 0c-1.17 0-2.2 2.77-2.2 6.24l7.1 6.72z"/><path fill="#595E62" d="M1122.557 358.882c29.93-1.19 62.68-7.45 100-19.12l-4.85-28.89c-38.17 18.08-69.25 27.49-97.64 29.6l2.49 18.41z"/><path fill="#C1C7CC" d="M1217.097 312.102l4.55 27.09c-36.7 11.41-68.89 17.58-98.36 18.83l-2.2-16.78c28-2.2 58.63-11.52 96.05-29.14m1.28-2.44c-33.21 15.8-66.32 27.77-99.2 30l2.68 20c33.76-1.25 67.67-8.79 101.66-19.41l-5.14-30.76m-829.36 151.68V35.002c83.4-20.57 149-8.61 206 44.61l37.35 201.58c-53.33 32.81-86.62 91.56-68.95 178.86l-174.4 1.12z"/><path fill="#8A9097" d="M715.327 499.782c15.25-17.18 25-43 25-72 0-51.68-31-93.56-69.16-93.56s-69.18 41.89-69.18 93.57c0 28.95 9.71 54.81 25 72h-27.1a157.26 157.26 0 0 1-18.83-76.23c0-70 41.95-126.79 93.7-126.79s93.7 56.76 93.7 126.79a157.26 157.26 0 0 1-18.83 76.23l-34.3-.01z"/><path fill="#232628" d="M660.887 423.552c0-32.65 9.12-62.41 24.18-84.89v-41.9h69.59c51.75 0 93.7 56.76 93.7 126.79s-42 126.78-93.7 126.78h-69.67v-41.91c-15-22.46-24.17-52.23-24.17-84.87"/><path fill="#8A9097" d="M752.477 427.792c0 51.69-31 93.6-69.17 93.6s-69.16-41.91-69.16-93.6 31-93.56 69.16-93.56 69.17 41.88 69.17 93.56"/><path fill="#C1C7CC" d="M683.307 334.232a50.82 50.82 0 0 1 9.91 1c-33.49 6.59-59.33 45.49-59.33 92.6 0 47.11 25.75 86.12 59.33 92.63a53.26 53.26 0 0 1-9.91 1c-38.19 0-69.16-41.91-69.16-93.6s31-93.56 69.16-93.56"/><path fill="#C1C7CC" d="M604.987 439.202l58.15-26.66a17.9 17.9 0 0 0 9.67-10.1l29.93-85.38 43.62 11-30.37 86.79a17.21 17.21 0 0 0 1.88 15.15l28.57 44.59-20.57 47-42.63-64.76a11.09 11.09 0 0 0-13.71-3.42l-59.88 27.46-4.66-41.67z"/><path fill="#383B3E" d="M686.987 296.762c-51.75 0-93.7 56.76-93.7 126.79s41.98 126.78 93.7 126.78c51.72 0 93.7-56.76 93.7-126.78 0-70.02-42-126.79-93.7-126.79m-3.71 224.63c-38.19 0-69.16-41.91-69.16-93.6s31-93.56 69.16-93.56 69.17 41.88 69.17 93.56-31 93.6-69.17 93.6"/><path fill="#D0D4D8" d="M890.527 499.102h-98.09c13.53-103-15.39-200.94-116.91-206.19l141.12-10.55 73.88 216.74z"/><path fill="#8A9097" d="M145.737 499.782c15.25-17.18 24.87-43 24.87-72 0-51.68-31-93.56-69.15-93.56-38.15 0-69.16 41.88-69.16 93.56 0 3.63.15 7.19.44 10.71l-21.21-7.49c-.11-2.44-.15-4.92-.15-7.41 0-70 42-126.79 93.7-126.79s93.7 56.76 93.7 126.79a157.26 157.26 0 0 1-18.79 76.19h-34.25z"/><path fill="#232628" d="M91.297 423.552c0-32.65 9.12-62.41 24.18-84.89v-41.9h69.59c51.75 0 93.7 56.76 93.7 126.79s-41.95 126.78-93.7 126.78h-69.66v-41.91c-15-22.46-24.17-52.23-24.17-84.87"/><path fill="#8A9097" d="M182.897 427.792c0 51.69-31 93.6-69.18 93.6-38.18 0-69.16-41.91-69.16-93.6s31-93.56 69.16-93.56 69.18 41.88 69.18 93.56"/><path fill="#C1C7CC" d="M113.717 334.232a50.74 50.74 0 0 1 9.91 1c-33.51 6.59-59.33 45.49-59.33 92.6 0 47.11 25.69 86.08 59.33 92.59a53.26 53.26 0 0 1-9.91 1c-38.19 0-69.16-41.91-69.16-93.6s31-93.56 69.16-93.56"/><path fill="#C1C7CC" d="M35.437 439.202l58.13-26.66a17.94 17.94 0 0 0 9.69-10.1l30-85.49 43.65 11-30.46 86.71a17.23 17.23 0 0 0 1.89 15.14l28.57 44.59-20.57 47-42.63-64.76a11.1 11.1 0 0 0-13.72-3.43l-59.9 27.47-4.65-41.47z"/><path fill="#383B3E" d="M117.337 296.762c-51.75 0-93.7 56.76-93.7 126.79s41.95 126.78 93.7 126.78 93.7-56.76 93.7-126.78c0-70.02-42-126.79-93.7-126.79m-3.62 224.63c-38.19 0-69.16-41.91-69.16-93.6s31-93.56 69.16-93.56 69.18 41.88 69.18 93.56-31 93.6-69.18 93.6"/><path fill="#D0D4D8" d="M320.987 499.102h-98.17c13.56-103-15.38-200.94-116.88-206.19l141.12-10.55 73.93 216.74z"/><path fill="#8A9097" d="M836.987 494.002h335.09l17.08-4.39s-.9-5.08-5.52-5.08h-359.1a5.2 5.2 0 0 0-5.49 4.57l17.94 4.9z"/><path fill="#595E62" d="M921.797 346.332c-48.89-7.23-91.17-19.77-129.19-38.32l-4.39 33.51c36.91 12 81 20.11 131.08 24.17l2.5-19.36z"/><path fill="#C1C7CC" d="M793.267 309.262c37.62 18.22 79.42 30.59 127.61 37.74l-2.37 17.73c-49.4-4-93-12-129.48-23.82l4.24-31.69m-6.07 32.83c39.1 12.77 83.73 20.55 132.73 24.46l2.79-20.92c-46.71-6.83-90.66-19.16-130.79-38.85l-4.73 35.31zm-601.54-229.57c73.71-38.44 137-65.31 192.64-78.17v427l-137.74 1.23c3.21-96-21.14-155.38-103.5-180.19l48.6-169.87z"/><path fill="#383B3E" d="M696.597 212.262l-158.85 81.55-372.33-23.6-100.29-43 15.38-43.95c40.31-42.32 215.09-151.63 363.6-159 148.51-7.37 242.93 153.09 252.71 188.07"/><ellipse cx="87.477" cy="263.252" fill="#C1C7CC" rx="11.49" ry="17.12"/><path fill="#232628" d="M993.367 423.552c0-32.65 9.15-62.41 24.18-84.89v-41.9h69.61c51.75 0 93.7 56.76 93.7 126.79s-41.95 126.78-93.7 126.78h-69.68v-41.91c-15-22.46-24.17-52.23-24.17-84.87"/><path fill="#8A9097" d="M1084.987 427.792c0 51.69-31 93.6-69.16 93.6s-69.15-41.91-69.15-93.6 31-93.56 69.15-93.56c38.15 0 69.16 41.88 69.16 93.56"/><path fill="#C1C7CC" d="M1015.807 334.232a50.67 50.67 0 0 1 9.91 1c-33.51 6.59-59.33 45.49-59.33 92.6 0 47.11 25.75 86.12 59.33 92.63a53.17 53.17 0 0 1-9.91 1c-38.19 0-69.15-41.91-69.15-93.6s31-93.56 69.15-93.56"/><path fill="#C1C7CC" d="M937.537 439.202l58.14-26.66a17.81 17.81 0 0 0 9.67-10.1l29.93-85.38 43.64 11-30.43 86.8a17.11 17.11 0 0 0 1.89 15.14l28.61 44.58-20.54 46.81-42.63-64.76a11.12 11.12 0 0 0-13.83-3.43l-59.88 27.47-4.57-41.47z"/><path fill="#383B3E" d="M1019.437 296.762c-51.75 0-93.71 56.76-93.71 126.79s42 126.78 93.71 126.78c51.71 0 93.7-56.76 93.7-126.78 0-70.02-42-126.79-93.7-126.79m-3.63 224.63c-38.19 0-69.15-41.91-69.15-93.6s31-93.56 69.15-93.56c38.15 0 69.18 41.88 69.18 93.56s-31 93.6-69.15 93.6"/><path fill="#232628" d="M423.777 423.552c0-32.65 9.12-62.41 24.18-84.89v-41.9h69.59c51.75 0 93.72 56.76 93.72 126.79s-42 126.78-93.72 126.78h-69.66v-41.91c-15-22.46-24.17-52.23-24.17-84.87"/><path fill="#8A9097" d="M515.377 427.792c0 51.69-31 93.6-69.16 93.6s-69.18-41.91-69.18-93.6 31-93.56 69.18-93.56c38.18 0 69.16 41.88 69.16 93.56"/><path fill="#C1C7CC" d="M446.217 334.232a51.45 51.45 0 0 1 9.91 1c-33.51 6.59-59.33 45.49-59.33 92.6 0 47.11 25.75 86.12 59.33 92.63a54 54 0 0 1-9.91 1c-38.19 0-69.18-41.91-69.18-93.6s31-93.56 69.18-93.56"/><path fill="#C1C7CC" d="M367.917 439.202l58.15-26.66a17.9 17.9 0 0 0 9.67-10.1l29.93-85.38 43.64 11-30.43 86.8a17.13 17.13 0 0 0 1.88 15.14l28.68 44.37-20.57 47-42.63-64.77a11.11 11.11 0 0 0-13.73-3.42l-59.88 27.46-4.71-41.44z"/><path fill="#383B3E" d="M449.847 296.762c-51.75 0-93.7 56.76-93.7 126.79s41.95 126.78 93.7 126.78 93.7-56.76 93.7-126.78c0-70.02-41.95-126.79-93.7-126.79m-3.63 224.63c-38.19 0-69.18-41.91-69.18-93.6s31-93.56 69.18-93.56c38.18 0 69.16 41.88 69.16 93.56s-31 93.6-69.16 93.6"/><path fill="#D0D4D8" d="M37.837 305.482l132.46 55.07 4.95 138.84h647.74c132.09 0 350.3-.86 350.3-.86 27.21-.55 22.79-19.6 29.71-38.56 40.94-42.46 17.23-148.4 17.23-148.4l-19.78-28c-16.39-42-39.84-52-75.41-88.37C978.317 45.412 821.727.652 614.497.652h-47.66c-102.31 3.45-303.56-2.36-480.24 164.52l-48.76 140.31zm782.31 149.67c-1.08-16.48-1.67-25.62 0 0m2.84 43.73c-.11-1.75-.48-7.34-.94-14.43.28 4.39.61 9.23.94 14.43m-1.16-18c-.13-2-.27-4.05-.42-6.14.13 2 .26 4 .42 6.14m-.53-7.94c-.15-2.19-.29-4.5-.44-6.74.13 2.19.29 4.39.44 6.74m-.68-9.58c0-1.14-.15-2.2-.22-3.36 0 1.05.13 2.2.22 3.36"/><path fill="#D0D4D8" d="M175.137 489.742L.747 427.072c-4.76-53.33 13.62-96.91 43.59-128.49l130.8 2.53v188.63z"/><path fill="#383B3E" d="M1095.987 165.832c-84.82-82.32-178-119.39-256.73-143.06a380.73 380.73 0 0 0-63.13-13.18c-108.53-13.32-218.08-9.76-271.83-6.94 71.88 20.81 133.32 73.24 179.69 137.21 51.51 70.95 121.72 126.14 203.68 157.21 21.32 8.08 142.16 52.93 216.87 5.93 84.72-52.74 28.13-101.64-8.46-137.15"/><path fill="#2E3033" d="M952.387 397.002a836.21 836.21 0 0 0 180.74 0l9.21-6.11s-.48-6.87-3-6.87c-66.43 5.91-131.19 6.44-193.68 0-1.59 0-2.9 2.74-3 6.22l9.73 6.76zm25.23 50.19a662.56 662.56 0 0 0 130.13 0l6.6-6.06s-.36-6.9-2.2-6.9a724.92 724.92 0 0 1-139.43 0c-1.17 0-2.2 2.77-2.2 6.24l7.1 6.72z"/><path fill="#595E62" d="M1122.557 358.882c29.93-1.19 62.68-7.45 100-19.12l-4.85-28.89c-38.17 18.08-69.25 27.49-97.64 29.6l2.49 18.41z"/><path fill="#C1C7CC" d="M1217.097 312.102l4.55 27.09c-36.7 11.41-68.89 17.58-98.36 18.83l-2.2-16.78c28-2.2 58.63-11.52 96.05-29.14m1.28-2.44c-33.21 15.8-66.32 27.77-99.2 30l2.68 20c33.76-1.25 67.67-8.79 101.66-19.41l-5.14-30.76m-829.36 151.68V35.002c83.4-20.57 149-8.61 206 44.61l37.35 201.58c-53.33 32.81-86.62 91.56-68.95 178.86l-174.4 1.12z"/><path fill="#8A9097" d="M715.327 499.782c15.25-17.18 25-43 25-72 0-51.68-31-93.56-69.16-93.56s-69.18 41.89-69.18 93.57c0 28.95 9.71 54.81 25 72h-27.1a157.26 157.26 0 0 1-18.83-76.23c0-70 41.95-126.79 93.7-126.79s93.7 56.76 93.7 126.79a157.26 157.26 0 0 1-18.83 76.23l-34.3-.01z"/><path fill="#232628" d="M660.887 423.552c0-32.65 9.12-62.41 24.18-84.89v-41.9h69.59c51.75 0 93.7 56.76 93.7 126.79s-42 126.78-93.7 126.78h-69.67v-41.91c-15-22.46-24.17-52.23-24.17-84.87"/><path fill="#8A9097" d="M752.477 427.792c0 51.69-31 93.6-69.17 93.6s-69.16-41.91-69.16-93.6 31-93.56 69.16-93.56 69.17 41.88 69.17 93.56"/><path fill="#C1C7CC" d="M683.307 334.232a50.82 50.82 0 0 1 9.91 1c-33.49 6.59-59.33 45.49-59.33 92.6 0 47.11 25.75 86.12 59.33 92.63a53.26 53.26 0 0 1-9.91 1c-38.19 0-69.16-41.91-69.16-93.6s31-93.56 69.16-93.56"/><path fill="#C1C7CC" d="M604.987 439.202l58.15-26.66a17.9 17.9 0 0 0 9.67-10.1l29.93-85.38 43.62 11-30.37 86.79a17.21 17.21 0 0 0 1.88 15.15l28.57 44.59-20.57 47-42.63-64.76a11.09 11.09 0 0 0-13.71-3.42l-59.88 27.46-4.66-41.67z"/><path fill="#383B3E" d="M686.987 296.762c-51.75 0-93.7 56.76-93.7 126.79s41.98 126.78 93.7 126.78c51.72 0 93.7-56.76 93.7-126.78 0-70.02-42-126.79-93.7-126.79m-3.71 224.63c-38.19 0-69.16-41.91-69.16-93.6s31-93.56 69.16-93.56 69.17 41.88 69.17 93.56-31 93.6-69.17 93.6"/><path fill="#D0D4D8" d="M890.527 499.102h-98.09c13.53-103-15.39-200.94-116.91-206.19l141.12-10.55 73.88 216.74z"/><path fill="#8A9097" d="M145.737 499.782c15.25-17.18 24.87-43 24.87-72 0-51.68-31-93.56-69.15-93.56-38.15 0-69.16 41.88-69.16 93.56 0 3.63.15 7.19.44 10.71l-21.21-7.49c-.11-2.44-.15-4.92-.15-7.41 0-70 42-126.79 93.7-126.79s93.7 56.76 93.7 126.79a157.26 157.26 0 0 1-18.79 76.19h-34.25z"/><path fill="#232628" d="M91.297 423.552c0-32.65 9.12-62.41 24.18-84.89v-41.9h69.59c51.75 0 93.7 56.76 93.7 126.79s-41.95 126.78-93.7 126.78h-69.66v-41.91c-15-22.46-24.17-52.23-24.17-84.87"/><path fill="#8A9097" d="M182.897 427.792c0 51.69-31 93.6-69.18 93.6-38.18 0-69.16-41.91-69.16-93.6s31-93.56 69.16-93.56 69.18 41.88 69.18 93.56"/><path fill="#C1C7CC" d="M113.717 334.232a50.74 50.74 0 0 1 9.91 1c-33.51 6.59-59.33 45.49-59.33 92.6 0 47.11 25.69 86.08 59.33 92.59a53.26 53.26 0 0 1-9.91 1c-38.19 0-69.16-41.91-69.16-93.6s31-93.56 69.16-93.56"/><path fill="#C1C7CC" d="M35.437 439.202l58.13-26.66a17.94 17.94 0 0 0 9.69-10.1l30-85.49 43.65 11-30.46 86.71a17.23 17.23 0 0 0 1.89 15.14l28.57 44.59-20.57 47-42.63-64.76a11.1 11.1 0 0 0-13.72-3.43l-59.9 27.47-4.65-41.47z"/><path fill="#383B3E" d="M117.337 296.762c-51.75 0-93.7 56.76-93.7 126.79s41.95 126.78 93.7 126.78 93.7-56.76 93.7-126.78c0-70.02-42-126.79-93.7-126.79m-3.62 224.63c-38.19 0-69.16-41.91-69.16-93.6s31-93.56 69.16-93.56 69.18 41.88 69.18 93.56-31 93.6-69.18 93.6"/><path fill="#D0D4D8" d="M320.987 499.102h-98.17c13.56-103-15.38-200.94-116.88-206.19l141.12-10.55 73.93 216.74z"/><path fill="#8A9097" d="M836.987 494.002h335.09l17.08-4.39s-.9-5.08-5.52-5.08h-359.1a5.2 5.2 0 0 0-5.49 4.57l17.94 4.9z"/><path fill="#595E62" d="M921.797 346.332c-48.89-7.23-91.17-19.77-129.19-38.32l-4.39 33.51c36.91 12 81 20.11 131.08 24.17l2.5-19.36z"/><path fill="#C1C7CC" d="M793.267 309.262c37.62 18.22 79.42 30.59 127.61 37.74l-2.37 17.73c-49.4-4-93-12-129.48-23.82l4.24-31.69m-6.07 32.83c39.1 12.77 83.73 20.55 132.73 24.46l2.79-20.92c-46.71-6.83-90.66-19.16-130.79-38.85l-4.73 35.31zm-601.54-229.57c73.71-38.44 137-65.31 192.64-78.17v427l-137.74 1.23c3.21-96-21.14-155.38-103.5-180.19l48.6-169.87z"/><path fill="#383B3E" d="M696.597 212.262l-158.85 81.55-372.33-23.6-100.29-43 15.38-43.95c40.31-42.32 215.09-151.63 363.6-159 148.51-7.37 242.93 153.09 252.71 188.07"/><ellipse cx="87.477" cy="263.252" fill="#C1C7CC" rx="11.49" ry="17.12"/></g></svg>
