<?xml version="1.0" encoding="UTF-8"?>
<svg xmlns="http://www.w3.org/2000/svg" viewBox="0 0 377 737" width="64" height="125.11405835544"><g fill="none" fill-rule="evenodd"><path fill="#007BC0" fill-rule="nonzero" d="M177.466 90.99a59.76 59.76 0 0 0 10.95-8.67c-3.403.521-7.191.88-10.73 1-.29 2.57-.59 5.29-.81 8l.59-.29v-.04z"/><path fill="#0096E8" fill-rule="nonzero" d="M110.456 234.05l-60.18-18.67-27.49-11.17-12.79 20.11s12.28 4.18 23.23 7.2c10.95 3.02 19.91 5.51 19.91 5.51s52.69 34.69 70.92 44.09l1.1-31.6-14.7-15.43v-.04z"/><path fill="#8A9097" fill-rule="nonzero" d="M51.376 218.47l-19-53.65a5.06 5.06 0 0 0-4.78-3.38H7.946l17.2.07a5.15 5.15 0 0 1 4.77 3.38l19 53.58a5.16 5.16 0 0 1-3.16 6.54 4.3 4.3 0 0 1-1.69.29h2.5a5.12 5.12 0 0 0 5.15-5.14 4.54 4.54 0 0 0-.34-1.69zm-24.47 6.24l11.61.59-11.61-.59z"/><path fill="#D0D4D8" fill-rule="nonzero" d="M48.876 218.47l-19-53.58a5 5 0 0 0-4.77-3.38H5.666a5.08 5.08 0 0 0-5.07 5.07 4.56 4.56 0 0 0 .29 1.74l18.82 53.14a5.06 5.06 0 0 0 4.7 3.38h2.5l11.68.58h5.52a5.15 5.15 0 0 0 5.14-5.14 9.87 9.87 0 0 0-.37-1.76v-.05z"/><path fill="#56B0FF" d="M8.076 189.38l32.63 1.1c1 6.69-2.94 17.86-9.26 20.14l-21.46 13.7-1.91-34.9v-.04z"/><path fill="#001D33" fill-rule="nonzero" d="M142.566 235.51l-9.22 53.88-65.29-29.13 1.21-42.23 41.99 9.95 13.59-76.7z"/><path fill="#71767C" fill-rule="nonzero" d="M293.656 404.26a24.66 24.66 0 0 1 .24 6.17h-31.6 26.47a3.55 3.55 0 0 1 3.55 3.55v6h7.35v-6a10.9 10.9 0 0 0-6.01-9.72z"/><path fill="#71767C" fill-rule="nonzero" d="M296.896 410.4h-31.56l.71-7.28h25.76c1.695 0 3.367.397 4.88 1.16a23.79 23.79 0 0 1 .21 6.12z"/><path fill="#A4ABB3" fill-rule="nonzero" d="M357.706 669.65l-18.81 12.86-33.3 51.52.22.07a26.17 26.17 0 0 0 21.9-4.56l47.69-36-17.71-23.88.01-.01zM11.956 703.09l.07.22a26.11 26.11 0 0 0 16.68 14.91l57.25 17.1 2.5-28.29-19.25-7.42-57.25 3.53v-.05z"/><path fill="#001D33" fill-rule="nonzero" d="M366.246 663.84c-45.12-136.62-53.06-132-103.77-188.95-6.17-7-9.33-18.59-12-32.63-4.55-23.81-8-47.47-12-69-11.32 15.58-29 30.35-50.79 62.54 12 28.95 22.79 50.26 22.79 50.26l126.82 197.62 2.42-1.69 18.82-12.86 7.71-5.29zM149.596 296.61c.15 5.81 3.59 20.72 8.22 44.09 12.78-25.11 14.89-39.27 15.21-44.9h-20.8l-2.63.81z"/><path fill="#003253" fill-rule="nonzero" d="M238.596 373.7c-11.31 15.58-28.95 30.36-50.78 62.54-5.88 8.68-12 18.52-18.44 30.06-7 12.49-11.91 23.45-11.54 32.78 2.72 76.21-2.57 65.63-59.6 211.72l-9.92-3.82-19.26-7.42-4.78-1.84 43.95-219.4s3.1-11 8.12-27.22c6.093-19.68 12.186-48.32 21.889-73.34 4.772-12.306 18.941-35.69 19.601-37.08 12-25.14 14.62-39.47 15.21-44.91h77.46c5.51 42.88.73 60.88-11.91 77.93zM155.446 31.55a.26.26 0 0 1 .08-.22c-.66.74-1 1.25-1 1.25s-2.43-6.54-1.62-12.27a3.82 3.82 0 0 0 .08-.95c-1.62 4.33-3.24 12.42 2.86 19.4a64.12 64.12 0 0 1-.37-7.2l-.03-.01z"/><path fill="#003253" fill-rule="nonzero" d="M223.366 32.26c.81-7.49-9.85-13.89-9.85-13.89s0-5.73-9-13.08-18.81-2.42-27-3.3c-8.19-.88-17.42-3.31-24 0-6.17 3.08-.66 12.05-.73 17.85a3.86 3.86 0 0 1-.08 1c-.8 5.73 1.62 12.27 1.62 12.27s.37-.51 1-1.25c1.69-2 5-5.73 7.35-6.9 3.31-1.62 4.92.8 13.89 3.3s18-4.11 18-4.11c-4.92 13.89 2.8 16.61 5.22 20.65a7.52 7.52 0 0 1 1 3.53c2.87-4.86 7.5-10.73 11.24-6.55 4.63 5.08-3.38 18-7.42 23.89l1.84 4c.22 0 15.87-27.78 16.9-37.41h.02z"/><path fill="#56B0FF" fill-rule="nonzero" d="M176.596 91.32c-1.25 11-2.57 21.53-2.57 21.53h40.57l-7.86-43.43-1.84-4c4-5.88 12.05-18.82 7.43-23.89-3.83-4.19-8.46 1.69-11.25 6.54a6.76 6.76 0 0 0-1-3.52c-2.42-4.12-10.14-6.76-5.22-20.65 0 0-9 6.54-18 4.11-9-2.43-10.66-4.92-13.89-3.31-3.09 1.16-7.37 6.89-7.44 7-.07.11-.06 2.94.31 7.29a113.16 113.16 0 0 0 3.38 21c3.9 14.4 7.13 21.31 7.13 21.31a49.6 49.6 0 0 0 11.25 2.02 35 35 0 0 0 10.73-1 59.39 59.39 0 0 1-10.95 8.68l-.78.32z"/><path d="M166.926 101.64l7.72-3.32-7.72 3.32z"/><path fill="#D0D4D8" fill-rule="nonzero" d="M131.066 130.32a45.56 45.56 0 0 0-6.4 27.27c-.8-9.43 1.62-18.76 6.4-27.27zm40.05 60l-18.67 117.9h52.7l-8.55-203.42 22.41-7.13-2.13-1.25h-39.81l-5.36 3.31 13.3 3.09-13.89 87.5z"/><path fill="#43464A" fill-rule="nonzero" d="M171.116 190.42s-11.71 86.9-11.61 116.69c0 8.23-1.67 33.6-1.67 33.6-.66 1.39-1.4 2.86-2.13 4.33-14.86 30.14-30.27 76.73-39.36 106.09l4.25-72.06 9-154.7-4.85-65.7-.07-1a48.05 48.05 0 0 1 6.39-27.26 64.77 64.77 0 0 1 16.32-18.82L164.146 98l7.56 1.76 13.31 3.09-13.9 87.57zM255.776 252.52c-3.318-11.479-7.373-29.048-12.335-49.322-3.173-12.965-6.683-30.373-8.922-42.645-2.2-12.27 0-38.309 15.527-48.183l.44.07-27.56-16.12-4 1.25-22.41 7 5.37 355 51.88-1.91 36.6-1.69-6.4-90.47c-2.47-.1-28.78-71.9-28.19-112.98z"/><path fill="#71767C" d="M213.816 120.89s-13-9.84-17.49-16.38c-.3-.45 13.59-19.55 13.59-19.55l14.41 10c.07.08-5.37 19.84-10.51 25.94v-.01zm-47.33 0s14.11-11.57 18.52-18.15c.29-.44-8.23-16-8.23-16l-13.89 8.09c0 .15-1.54 19.91 3.6 26v.06z"/><path fill="#56B0FF" fill-rule="nonzero" d="M288.926 377.76c8.67-32.26 13-85.83 6.91-117.21l-26.24 10.21c-.37 26.53-.66 62.32-.81 84.81-.07 12.64-.15 21-.15 21l20.29 1.19z"/><path fill="#71767C" fill-rule="nonzero" d="M297.716 367.39c4.63-37.07 8.88-122.67 8.88-122.67l-30.2-103.47c-3.38-17.34-12-27.19-25.87-29l-.44-.07c-17.27 8.45-18.52 38.44-16.32 50.64 5.73 31.45 16.61 70.62 22 89.51-.59 41 3.49 114.26 3.49 114.26l38.46.8zM230.206 420.03h106.42v83.13h-106.42z"/><path fill="#A4ABB3" fill-rule="nonzero" d="M214.076 420.03h16.13v83.13h-16.13z"/><path fill="#8A9097" fill-rule="nonzero" d="M230.206 420.03v34.93a6.49 6.49 0 0 0 4.87 6.29c12.52 3.24 30.28 5.25 50 5.25s37.47-2 50-5.25a6.49 6.49 0 0 0 4.87-6.29v-31.19a3.73 3.73 0 0 0-3.74-3.74h-106z"/><path fill="#C1C7CC" fill-rule="nonzero" d="M276.536 462.3h17.05v12.59h-17.05z"/><path fill="#71767C" fill-rule="nonzero" d="M265.336 410.38l.71-7.28h-2.67c-6.02.006-10.899 4.88-10.91 10.9v6h7.35v-6a3.56 3.56 0 0 1 3.56-3.55h2v-.07h-.04z"/><path fill="#56B0FF" fill-rule="nonzero" d="M296.936 410.43h-31.6l.71-7.35h-2.67a10.88 10.88 0 0 0-8.55 4.14l13.77-30.63 20.22-2c-.23 1.65 6.3 18.43 7.83 29.72a24.24 24.24 0 0 1 .29 6.12z"/><path fill="#0096E8" fill-rule="nonzero" d="M263.376 410.45a3.56 3.56 0 0 0-3.56 3.55v6h32.62c2.51-5.2 4.5-9.6 4.5-9.6l-33.56.05z"/></g></svg>
