<?xml version="1.0" encoding="UTF-8"?>
<svg xmlns="http://www.w3.org/2000/svg" viewBox="0 0 192 192"><path d="M143.887 152.5c-13.951-6.455-21.046-22.925-16.154-37.498 2.142-6.382 6.194-11.75 11.716-15.524l9.635-6.583-11.647-.712c-17.619-1.078-34.167 9.021-41.182 25.129-4.696 10.78-4.725 22.654-.083 33.436 4.642 10.782 13.288 18.92 24.347 22.919a41.483 41.483 0 0 0 14.114 2.465c12.177 0 24.128-5.3 32.29-14.944l7.54-8.906-11.417 2.408c-6.483 1.368-13.108.61-19.16-2.19zm-20.649 13.643c-8.957-3.238-15.96-9.829-19.718-18.559-3.759-8.73-3.734-18.346.07-27.078 4.197-9.636 12.613-16.615 22.484-19.248a38.634 38.634 0 0 0-5.925 11.199c-6.275 18.689 2.486 39.025 20.378 47.303a38.687 38.687 0 0 0 11.983 3.362c-8.677 5.28-19.468 6.564-29.272 3.021zm51.59-143.314l-152 152-5.657-5.658 152-152 5.658 5.658zM60 80c11.028 0 20-8.972 20-20s-8.972-20-20-20-20 8.972-20 20 8.972 20 20 20zm0-32c6.617 0 12 5.383 12 12s-5.383 12-12 12-12-5.383-12-12 5.383-12 12-12zm4-16h-8V16h8v16zm-8 56h8v16h-8V88zm48-24H88v-8h16v8zm-72 0H16v-8h16v8zm50.627-20.97l-5.657-5.657 11.314-11.314 5.657 5.657L82.627 43.03zM37.373 76.97l5.657 5.657-11.314 11.314-5.657-5.657L37.373 76.97zm45.254 0l8.202 8.201-5.658 5.658-8.2-8.202 5.656-5.657zM37.373 43.03L26.059 31.716l5.657-5.657L43.03 37.373l-5.657 5.657z" style="fill: #000000;"/></svg>
